<svg width="47" height="32" viewBox="0 0 47 32" fill="none" xmlns="http://www.w3.org/2000/svg">
<path d="M19.1627 21.9481H28.3627V19.6191H25.296V8.7504H22.5648L19.0189 12.0741L20.8637 14.0149C21.5346 13.4165 21.9738 12.9556 22.1814 12.6321H22.2294V19.6191H19.1627V21.9481ZM31.4294 15.7374C31.4294 16.8696 31.2617 18.0179 30.9262 19.1824C30.5908 20.3469 30.1156 21.4306 29.5007 22.4333C28.8858 23.4361 28.0752 24.2529 27.0689 24.8837C26.0627 25.5144 24.9606 25.8298 23.7627 25.8298C22.5648 25.8298 21.4627 25.5144 20.4564 24.8837C19.4502 24.2529 18.6396 23.4361 18.0247 22.4333C17.4097 21.4306 16.9346 20.3469 16.5992 19.1824C16.2637 18.0179 16.096 16.8696 16.096 15.7374C16.096 14.6053 16.2637 13.4569 16.5992 12.2924C16.9346 11.1279 17.4097 10.0443 18.0247 9.04153C18.6396 8.03876 19.4502 7.22199 20.4564 6.59121C21.4627 5.96044 22.5648 5.64505 23.7627 5.64505C24.9606 5.64505 26.0627 5.96044 27.0689 6.59121C28.0752 7.22199 28.8858 8.03876 29.5007 9.04153C30.1156 10.0443 30.5908 11.1279 30.9262 12.2924C31.2617 13.4569 31.4294 14.6053 31.4294 15.7374ZM43.696 21.9481V9.52674C42.003 9.52674 40.5575 8.92023 39.3596 7.7072C38.1617 6.49417 37.5627 5.03045 37.5627 3.31604H9.9627C9.9627 5.03045 9.36374 6.49417 8.16582 7.7072C6.9679 8.92023 5.52242 9.52674 3.82936 9.52674V21.9481C5.52242 21.9481 6.9679 22.5546 8.16582 23.7677C9.36374 24.9807 9.9627 26.4444 9.9627 28.1588H37.5627C37.5627 26.4444 38.1617 24.9807 39.3596 23.7677C40.5575 22.5546 42.003 21.9481 43.696 21.9481ZM46.7627 1.76337V29.7115C46.7627 30.132 46.611 30.4959 46.3075 30.8032C46.004 31.1105 45.6446 31.2642 45.2294 31.2642H2.29603C1.88075 31.2642 1.52138 31.1105 1.2179 30.8032C0.914431 30.4959 0.762695 30.132 0.762695 29.7115V1.76337C0.762695 1.34285 0.914431 0.978944 1.2179 0.671644C1.52138 0.364343 1.88075 0.210693 2.29603 0.210693H45.2294C45.6446 0.210693 46.004 0.364343 46.3075 0.671644C46.611 0.978944 46.7627 1.34285 46.7627 1.76337Z" fill="#FFDE59"/>
</svg>
