<svg width="46" height="26" viewBox="0 0 46 26" fill="none" xmlns="http://www.w3.org/2000/svg">
<path d="M19.9333 14.3955V11.2901C19.9333 11.0637 19.8615 10.8777 19.7177 10.7321C19.574 10.5866 19.3903 10.5138 19.1667 10.5138H14.5667V5.85575C14.5667 5.62932 14.4948 5.44332 14.351 5.29775C14.2073 5.15219 14.0236 5.07941 13.8 5.07941H10.7333C10.5097 5.07941 10.326 5.15219 10.1823 5.29775C10.0385 5.44332 9.96667 5.62932 9.96667 5.85575V10.5138H5.36667C5.14306 10.5138 4.95937 10.5866 4.81562 10.7321C4.67187 10.8777 4.6 11.0637 4.6 11.2901V14.3955C4.6 14.6219 4.67187 14.8079 4.81562 14.9534C4.95937 15.099 5.14306 15.1718 5.36667 15.1718H9.96667V19.8298C9.96667 20.0562 10.0385 20.2422 10.1823 20.3878C10.326 20.5334 10.5097 20.6062 10.7333 20.6062H13.8C14.0236 20.6062 14.2073 20.5334 14.351 20.3878C14.4948 20.2422 14.5667 20.0562 14.5667 19.8298V15.1718H19.1667C19.3903 15.1718 19.574 15.099 19.7177 14.9534C19.8615 14.8079 19.9333 14.6219 19.9333 14.3955ZM33.7333 15.9481C33.7333 15.0909 33.4339 14.3591 32.8349 13.7526C32.2359 13.146 31.5132 12.8428 30.6667 12.8428C29.8201 12.8428 29.0974 13.146 28.4984 13.7526C27.8995 14.3591 27.6 15.0909 27.6 15.9481C27.6 16.8053 27.8995 17.5372 28.4984 18.1437C29.0974 18.7502 29.8201 19.0535 30.6667 19.0535C31.5132 19.0535 32.2359 18.7502 32.8349 18.1437C33.4339 17.5372 33.7333 16.8053 33.7333 15.9481ZM39.8667 9.73743C39.8667 8.88023 39.5672 8.14837 38.9682 7.54185C38.3693 6.93534 37.6465 6.63208 36.8 6.63208C35.9535 6.63208 35.2307 6.93534 34.6318 7.54185C34.0328 8.14837 33.7333 8.88023 33.7333 9.73743C33.7333 10.5946 34.0328 11.3265 34.6318 11.933C35.2307 12.5395 35.9535 12.8428 36.8 12.8428C37.6465 12.8428 38.3693 12.5395 38.9682 11.933C39.5672 11.3265 39.8667 10.5946 39.8667 9.73743ZM46 12.8428C46 16.2716 44.8021 19.199 42.4062 21.6251C40.0104 24.0512 37.1194 25.2642 33.7333 25.2642C30.6667 25.2642 27.9674 24.2291 25.6354 22.1588H20.3646C18.0326 24.2291 15.3333 25.2642 12.2667 25.2642C8.88056 25.2642 5.98958 24.0512 3.59375 21.6251C1.19792 19.199 0 16.2716 0 12.8428C0 9.41396 1.19792 6.48652 3.59375 4.06047C5.98958 1.63441 8.88056 0.421387 12.2667 0.421387H33.7333C37.1194 0.421387 40.0104 1.63441 42.4062 4.06047C44.8021 6.48652 46 9.41396 46 12.8428Z" fill="#FFDE59"/>
</svg>
