<svg width="36" height="36" viewBox="0 0 36 36" fill="none" xmlns="http://www.w3.org/2000/svg">
<path d="M23.833 18H27.6663C27.6663 15.4583 26.6567 13.0208 24.8594 11.2236C23.0622 9.42634 20.6247 8.41667 18.083 8.41667V12.25C19.608 12.25 21.0705 12.8558 22.1489 13.9341C23.2272 15.0125 23.833 16.475 23.833 18ZM31.4997 18H35.333C35.333 8.41667 27.6088 0.75 18.083 0.75V4.58333C25.4813 4.58333 31.4997 10.5825 31.4997 18ZM33.4163 24.7083C31.0205 24.7083 28.7205 24.325 26.5738 23.6158C25.903 23.405 25.1555 23.5583 24.6188 24.095L20.4022 28.3117C14.978 25.5517 10.5313 21.105 7.77134 15.6808L11.988 11.4642C12.5247 10.9275 12.678 10.18 12.4672 9.50917C11.758 7.3625 11.3747 5.0625 11.3747 2.66667C11.3747 2.15834 11.1727 1.67082 10.8133 1.31138C10.4539 0.951934 9.96634 0.75 9.45801 0.75H2.74967C2.24134 0.75 1.75383 0.951934 1.39439 1.31138C1.03494 1.67082 0.833008 2.15834 0.833008 2.66667C0.833008 11.3083 4.26588 19.596 10.3764 25.7066C16.487 31.8171 24.7747 35.25 33.4163 35.25C33.9247 35.25 34.4122 35.0481 34.7716 34.6886C35.1311 34.3292 35.333 33.8417 35.333 33.3333V26.625C35.333 26.1167 35.1311 25.6292 34.7716 25.2697C34.4122 24.9103 33.9247 24.7083 33.4163 24.7083Z" fill="#FFDE59"/>
</svg>
